<svg width="23" height="24" viewBox="0 0 23 24" fill="none" xmlns="http://www.w3.org/2000/svg">
<path d="M11.5511 0.550293C8.67837 0.553159 5.92429 1.51967 3.89297 3.2378C1.86166 4.95593 0.718977 7.28539 0.715588 9.7152C0.712147 11.7008 1.47898 13.6326 2.89845 15.2141C2.89845 15.2141 3.19396 15.5432 3.24223 15.5907L11.5511 23.8791L19.8639 15.5866C19.9072 15.5424 20.2037 15.2141 20.2037 15.2141L20.2047 15.2116C21.6235 13.6308 22.3899 11.6999 22.3866 9.7152C22.3832 7.28539 21.2405 4.95593 19.2092 3.2378C17.1779 1.51967 14.4238 0.553159 11.5511 0.550293ZM11.5511 13.0479C10.7718 13.0479 10.01 12.8524 9.36203 12.4862C8.71407 12.12 8.20905 11.5995 7.91083 10.9906C7.61261 10.3816 7.53458 9.7115 7.68661 9.06502C7.83864 8.41854 8.21391 7.82471 8.76495 7.35863C9.316 6.89254 10.0181 6.57513 10.7824 6.44654C11.5467 6.31795 12.3389 6.38395 13.0589 6.63619C13.7789 6.88843 14.3943 7.3156 14.8272 7.86365C15.2602 8.41171 15.4913 9.05605 15.4913 9.7152C15.49 10.5987 15.0744 11.4458 14.3358 12.0705C13.5971 12.6953 12.5957 13.0468 11.5511 13.0479Z" fill="white"/>
</svg>
